<?xml version="1.0" encoding="UTF-8" standalone="no"?>
<!DOCTYPE svg PUBLIC "-//W3C//DTD SVG 1.1//EN" "http://www.w3.org/Graphics/SVG/1.1/DTD/svg11.dtd">
<svg width="100%" height="100%" viewBox="0 0 2800 2800" version="1.1" xmlns="http://www.w3.org/2000/svg" xmlns:xlink="http://www.w3.org/1999/xlink" xml:space="preserve" xmlns:serif="http://www.serif.com/" style="fill-rule:evenodd;clip-rule:evenodd;stroke-linejoin:round;stroke-miterlimit:2;">
    <g>
        <g>
            <g>
                <rect x="0" y="0" width="2800" height="2800" style="fill:white;"/>
                <g>
                    <g>
                        <path d="M595.4,727.6C595.5,726.7 595.5,725.8 595.5,724.8C595.5,709.7 583.3,697.4 568.1,697.4C552.9,697.4 540.7,709.6 540.7,724.8C540.7,739.9 552.9,752.2 568.1,752.2C569,752.2 569.9,752.2 570.9,752.1L931.4,1112.6L955.9,1088.1L595.4,727.6Z" style="fill:rgb(227,227,227);fill-rule:nonzero;"/>
                        <path d="M595.5,840.6C593.7,827.2 582.3,816.9 568.4,816.9C553.3,816.9 541,829.1 541,844.3C541,859.4 553.2,871.7 568.4,871.7C571.2,871.7 573.9,871.3 576.4,870.5L812.3,1106.4L836.8,1081.9L595.5,840.6Z" style="fill:rgb(227,227,227);fill-rule:nonzero;"/>
                        <path d="M676.8,1696.1L652.3,1671.6L412.8,1911.1C411.9,1911 411,1911 410,1911C394.9,1911 382.6,1923.2 382.6,1938.4C382.6,1953.5 394.8,1965.8 410,1965.8C425.1,1965.8 437.4,1953.6 437.4,1938.4C437.4,1937.5 437.4,1936.6 437.3,1935.6L676.8,1696.1Z" style="fill:rgb(227,227,227);fill-rule:nonzero;"/>
                        <path d="M587.5,1933.8L719.3,1933.8L603.2,2050C602.3,2049.9 601.4,2049.9 600.4,2049.9C585.3,2049.9 573,2062.1 573,2077.3C573,2092.4 585.2,2104.7 600.4,2104.7C615.5,2104.7 627.8,2092.5 627.8,2077.3C627.8,2076.4 627.8,2075.5 627.7,2074.5L768.3,1933.9L956.7,1933.9L956.7,1899.3L773.2,1899.3L763.6,1889.7L754,1899.3L573.2,1899.3L467.6,2004.9C466.7,2004.8 465.8,2004.8 464.8,2004.8C449.7,2004.8 437.4,2017 437.4,2032.2C437.4,2047.3 449.6,2059.6 464.8,2059.6C479.9,2059.6 492.2,2047.4 492.2,2032.2C492.2,2031.3 492.2,2030.4 492.1,2029.4L587.5,1933.8Z" style="fill:rgb(227,227,227);fill-rule:nonzero;"/>
                        <path d="M386,1658.8L921.3,1658.8L921.3,1624.2L369.4,1624.2L312.9,1694.8C297.9,1694.9 285.8,1707.1 285.8,1722.1C285.8,1737.2 298,1749.5 313.2,1749.5C328.3,1749.5 340.6,1737.3 340.6,1722.1C340.6,1720.1 340.4,1718.2 340,1716.4L386,1658.8Z" style="fill:rgb(227,227,227);fill-rule:nonzero;"/>
                        <path d="M862.9,2000.6L838.4,1976.1L561.2,2253.3C560.3,2253.2 559.4,2253.2 558.4,2253.2C543.3,2253.2 531,2265.4 531,2280.6C531,2295.7 543.2,2308 558.4,2308C573.5,2308 585.8,2295.8 585.8,2280.6C585.8,2279.7 585.8,2278.8 585.7,2277.8L862.9,2000.6Z" style="fill:rgb(227,227,227);fill-rule:nonzero;"/>
                        <path d="M919,2080.1L894.5,2055.6L738.7,2211.4C737.8,2211.3 736.9,2211.3 735.9,2211.3C720.8,2211.3 708.5,2223.5 708.5,2238.7C708.5,2253.8 720.7,2266.1 735.9,2266.1C751,2266.1 763.3,2253.9 763.3,2238.7C763.3,2237.8 763.3,2236.9 763.2,2235.9L919,2080.1Z" style="fill:rgb(227,227,227);fill-rule:nonzero;"/>
                        <path d="M1264.6,1979.7L1240.1,1955.2L861.4,2334C860.5,2333.9 859.6,2333.9 858.6,2333.9C843.5,2333.9 831.2,2346.1 831.2,2361.3C831.2,2376.5 843.4,2388.7 858.6,2388.7C873.7,2388.7 886,2376.5 886,2361.3C886,2360.4 886,2359.5 885.9,2358.5L1264.6,1979.7Z" style="fill:rgb(227,227,227);fill-rule:nonzero;"/>
                        <path d="M1320.1,2102.1L1295.6,2077.6L1122.9,2250.3L1086.4,2250.3C1081.4,2244.2 1073.8,2240.2 1065.2,2240.2C1050.1,2240.2 1037.8,2252.4 1037.8,2267.6C1037.8,2282.7 1050,2295 1065.2,2295C1073.7,2295 1081.4,2291.1 1086.4,2284.9L1137.3,2284.9L1320.1,2102.1Z" style="fill:rgb(227,227,227);fill-rule:nonzero;"/>
                        <path d="M995.4,568.2C1003.9,568.2 1011.6,564.3 1016.6,558.1L1083.9,558.1L1199.6,673.8L1199.6,849L1234.2,849L1234.2,708.5L1260.6,734.9L1285.1,710.4L1234.3,659.6L1234.3,516.9C1240.4,511.9 1244.4,504.3 1244.4,495.7C1244.4,480.6 1232.2,468.3 1217,468.3C1201.9,468.3 1189.6,480.5 1189.6,495.7C1189.6,504.2 1193.5,511.9 1199.7,516.9L1199.7,625L1098.3,523.6L1016.6,523.6C1011.6,517.5 1004,513.5 995.4,513.5C980.3,513.5 968,525.7 968,540.9C968,556 980.3,568.2 995.4,568.2Z" style="fill:rgb(227,227,227);fill-rule:nonzero;"/>
                        <path d="M845.7,539.2C846.6,539.2 847.5,539.2 848.5,539.1L1132.8,823.4L1157.3,798.9L872.9,514.6C873,513.7 873,512.8 873,511.8C873,496.7 860.8,484.4 845.6,484.4C830.5,484.4 818.2,496.6 818.2,511.8C818.4,526.9 830.6,539.2 845.7,539.2Z" style="fill:rgb(227,227,227);fill-rule:nonzero;"/>
                        <path d="M500.4,619.9C508.9,619.9 516.6,616 521.6,609.8L778.4,609.8L1095.6,927L1120.1,902.5L792.7,575.2L521.6,575.2C516.6,569.1 509,565.1 500.4,565.1C485.3,565.1 473,577.3 473,592.5C473,607.6 485.3,619.9 500.4,619.9Z" style="fill:rgb(227,227,227);fill-rule:nonzero;"/>
                        <path d="M390.6,1135.8C397.3,1135.8 403.4,1133.4 408.1,1129.5L746,1129.5L746,1094.9L414.4,1094.9C409.7,1086.7 400.8,1081.1 390.7,1081.1C375.6,1081.1 363.3,1093.3 363.3,1108.5C363.3,1123.7 375.5,1135.8 390.6,1135.8Z" style="fill:rgb(227,227,227);fill-rule:nonzero;"/>
                        <path d="M523,1165.5C507.9,1165.5 495.6,1177.7 495.6,1192.9C495.6,1208 507.8,1220.3 523,1220.3C531.5,1220.3 539.2,1216.4 544.2,1210.2L717.3,1210.2L717.3,1175.6L544.2,1175.6C539.1,1169.4 531.5,1165.5 523,1165.5Z" style="fill:rgb(227,227,227);fill-rule:nonzero;"/>
                        <path d="M313.2,1275.5L313.3,1275.5L375.7,1337.9L753,1337.9L753,1303.3L390,1303.3L340,1253.3C340.3,1251.6 340.5,1249.9 340.5,1248.1C340.5,1233 328.3,1220.7 313.1,1220.7C298,1220.7 285.7,1232.9 285.7,1248.1C285.8,1263.3 298.1,1275.5 313.2,1275.5Z" style="fill:rgb(227,227,227);fill-rule:nonzero;"/>
                        <path d="M439.1,1410.6C447.6,1410.6 455.3,1406.7 460.3,1400.5L784.5,1400.5L784.5,1366L460.2,1366C455.2,1359.9 447.6,1355.9 439,1355.9C423.9,1355.9 411.6,1368.1 411.6,1383.3C411.6,1398.5 424,1410.6 439.1,1410.6Z" style="fill:rgb(227,227,227);fill-rule:nonzero;"/>
                        <path d="M439.1,1539.7C447.6,1539.7 455.3,1535.8 460.3,1529.6L817.2,1529.6L817.2,1495L460.2,1495C455.2,1488.9 447.6,1484.9 439,1484.9C423.9,1484.9 411.6,1497.1 411.6,1512.3C411.7,1527.5 424,1539.7 439.1,1539.7Z" style="fill:rgb(227,227,227);fill-rule:nonzero;"/>
                        <path d="M600.4,1814.2C585.3,1814.2 573,1826.4 573,1841.6C573,1856.7 585.2,1869 600.4,1869C608.9,1869 616.6,1865.1 621.6,1858.9L945.8,1858.9L945.8,1824.3L621.6,1824.3C616.6,1818.2 609,1814.2 600.4,1814.2Z" style="fill:rgb(227,227,227);fill-rule:nonzero;"/>
                    </g>
                    <g>
                        <g>
                            <path d="M1219.1,2134C1184.1,2141.7 1150.2,2138.2 1123.6,2124.3C1095.2,2109.5 1075.8,2081.6 1074,2053.4C1072.2,2025 1090.9,1996.2 1115.7,1989.1C1127.9,1985.6 1135,1972.8 1131.5,1960.6C1128,1948.4 1115.2,1941.3 1103,1944.8C1080.2,1951.3 1060.1,1966.7 1046.2,1988.1C1034.1,2006.8 1027.6,2028.7 1027.8,2050.3C1001.3,2067.6 973.9,2077.3 946.4,2079.3C919.3,2081.2 893,2075.3 870.2,2062C845.6,2047.7 825.8,2025.5 812.9,1997.6C802.2,1974.6 796.5,1948.1 795.9,1919.8C798.1,1920.3 800.3,1920.7 802.6,1921.2C818.9,1924.3 835.3,1925.8 851.5,1925.8C890.8,1925.8 929,1916.9 962.6,1899.5C973.9,1893.6 978.3,1879.7 972.5,1868.4C966.6,1857.1 952.7,1852.7 941.4,1858.5C903.1,1878.3 856.9,1884.5 811.2,1875.8C800.8,1873.8 790.6,1871.1 780.8,1867.8L780.7,1867.8C747.5,1856.4 718.2,1837.2 696.3,1812.2C666.9,1778.6 648.3,1737.2 644,1695.5C640.1,1658.4 647.3,1622.8 664.9,1591.4C668.2,1593.8 671.6,1596.1 675.1,1598.2C696.2,1611.1 721.9,1618 747.5,1618C753.4,1618 759.4,1617.6 765.2,1616.9C790.8,1613.6 813.5,1603.6 831.1,1588.1C857,1602.5 886.5,1610 916.1,1610C925.4,1610 934.8,1609.2 944,1607.7C956.6,1605.6 965.1,1593.8 963,1581.2C960.9,1568.6 949.1,1560.1 936.5,1562.2C904.5,1567.5 870.9,1560.1 844,1541.9C843.2,1541.1 842.3,1540.3 841.3,1539.5C840.1,1538.6 838.8,1537.8 837.5,1537.2C813,1518.3 795.8,1490.5 790,1460C787.6,1447.5 775.5,1439.3 763,1441.7C750.5,1444.1 742.3,1456.2 744.7,1468.7C751.3,1502.9 768.4,1534.6 792.9,1559.1C783.4,1565.3 772,1569.3 759.4,1571C738.4,1573.7 716.4,1569.2 699.2,1558.7C665,1537.8 641.4,1494.4 637.7,1445.4C634.2,1399.7 647.2,1352.1 672.9,1313.9C690.8,1329.3 712.2,1341.1 735.2,1348.2C751.1,1353.1 767.2,1355.5 783,1355.5C795.9,1355.5 808.6,1353.9 820.7,1350.6C826.4,1361.1 833.3,1371.1 841.2,1380.2C874.4,1418.1 924.4,1438.7 974.2,1438.7C1000.6,1438.7 1027,1432.9 1050.8,1420.9C1062.2,1415.1 1066.7,1401.3 1061,1389.9C1055.2,1378.5 1041.4,1374 1030,1379.7C1012.9,1388.3 993.8,1392.5 974.5,1392.5C937.5,1392.5 900.1,1377.4 876,1349.8C839.3,1307.9 835.3,1239.1 866.9,1193.1C874.1,1182.6 871.5,1168.2 861,1161C850.5,1153.8 836.1,1156.4 828.9,1166.9C801,1207.5 793.1,1259.6 804.3,1307C764,1315.6 715.3,1297.9 687.5,1262.6C671.2,1242 660.5,1215.7 656.3,1186.5C652.3,1158.6 654.3,1128.7 662.1,1100C671.5,1065.4 687.4,1037 708.4,1017.8C727.3,1000.5 751.3,990.5 773.9,990C780.7,1022.6 795.5,1054 817.5,1080C850.2,1118.8 895.9,1143.6 942.9,1148C947.9,1148.5 952.8,1148.7 957.7,1148.7C1004.4,1148.7 1049.2,1128.4 1077.3,1093.7C1085.3,1083.8 1083.8,1069.3 1073.9,1061.3C1064,1053.3 1049.5,1054.8 1041.5,1064.7C1020.3,1090.8 983.3,1105.5 947.1,1102.1C912.1,1098.8 877.7,1080 852.7,1050.3C818.4,1009.6 806.6,952.6 822.6,905C830.5,881.6 846,859.9 866.2,843.9C886.5,827.8 910.8,818.3 934.6,817C958.5,815.7 983.3,823.1 1004.3,837.7C1025.3,852.4 1040.2,872.7 1046.2,895.1C1049.5,907.4 1062.1,914.7 1074.4,911.4C1086.7,908.1 1094,895.5 1090.7,883.2C1081.9,850.3 1060.6,820.7 1030.6,799.9C1024.3,795.5 1017.7,791.6 1011,788.2C1011.3,719.6 1072.7,684.3 1109.9,669.2C1137.3,658.1 1169.6,656.3 1200.8,664.3C1231.9,672.2 1259.9,689.1 1279.8,711.9C1320.5,758.7 1328.3,832.1 1298.2,886.5C1268.2,940.8 1201.9,973.2 1140.5,963.6C1127.9,961.6 1116.1,970.2 1114.1,982.8C1112.1,995.4 1120.7,1007.2 1133.3,1009.2C1142.7,1010.7 1152.3,1011.4 1161.9,1011.4C1192.2,1011.4 1223.1,1004.2 1251.3,990.4C1275.6,978.5 1297.3,961.9 1314.7,942.3L1314.7,1758C1302.2,1781.9 1282,1802.9 1257.3,1817.4C1231.6,1832.5 1201.9,1839.9 1173.9,1838.2C1145.9,1836.6 1117.4,1825.7 1093.6,1807.8C1074.6,1793.4 1059.1,1774.9 1049,1754.5C1097.8,1736.8 1137.9,1696.2 1153.3,1646.3C1157.1,1634.1 1150.3,1621.2 1138.1,1617.4C1125.9,1613.6 1113,1620.4 1109.2,1632.6C1095.9,1675.3 1055.8,1709.9 1011.5,1716.6C967.3,1723.3 918.6,1702.3 893.3,1665.4C886.1,1654.9 871.7,1652.3 861.2,1659.5C850.7,1666.7 848.1,1681.1 855.3,1691.6C886.3,1736.7 940.2,1764 994.6,1764C997.2,1764 999.9,1763.9 1002.5,1763.8C1030.5,1831 1098.4,1879.9 1171.2,1884.2C1174.7,1884.4 1178.2,1884.5 1181.7,1884.5C1230.5,1884.5 1278.6,1864.8 1314.6,1832L1314.6,2045.1C1314.6,2045.8 1314.6,2046.4 1314.7,2047C1312.3,2064.5 1303.8,2082.1 1290.2,2096.3C1268.4,2119.4 1239.5,2129.5 1219.1,2134Z" style="fill:rgb(255,132,73);fill-rule:nonzero;"/>
                            <g>
                                <path d="M1180.6,1340.6C1197.7,1394.2 1185.1,1456.4 1148.5,1499.2C1140.2,1508.9 1141.3,1523.4 1151,1531.7C1155.3,1535.4 1160.7,1537.2 1166,1537.2C1172.5,1537.2 1179,1534.5 1183.5,1529.1C1230.2,1474.5 1246.3,1395 1224.5,1326.5C1202.6,1258 1143.5,1202.5 1073.7,1185.1C1061.3,1182 1048.8,1189.5 1045.7,1201.9C1042.6,1214.3 1050.1,1226.8 1062.5,1229.9C1117.2,1243.6 1163.5,1287 1180.6,1340.6Z" style="fill:rgb(133,69,38);fill-rule:nonzero;"/>
                                <path d="M1360.7,852.5C1360.7,850.2 1360.4,848 1359.7,845.9C1362.5,828.2 1363,809.9 1361.1,791.8C1356.8,750.6 1340.1,711.6 1314.3,681.9C1260.3,619.7 1166.9,596.5 1092.3,626.7C1053.1,642.6 1022.1,664.1 1000.1,690.8C979.9,715.3 968.2,743 965.3,773.3C954.2,771.4 943,770.7 931.8,771.2C864,774.8 801,823.8 778.6,890.6C772.8,907.8 769.8,926 769.3,944.3C736.5,945.7 703.4,959.8 676.8,984.1C649.5,1009.2 628.8,1045.2 617.2,1088.3C598.6,1157.1 607.8,1226.8 641.5,1278.3C604.9,1326.9 586.8,1388.2 591.5,1449C594.7,1490.5 608.8,1528.4 631,1557.9C604.1,1600.1 592.7,1649.1 598,1700.2C603.3,1751.3 625.9,1801.9 661.5,1842.5C685.1,1869.5 715.5,1890.9 749.8,1905.3C748.4,1945.7 755.6,1984 770.9,2017C787.8,2053.5 814.1,2082.8 846.9,2101.9C874.4,2117.9 904.7,2125.8 935.8,2125.8C969.8,2125.8 1004.8,2116.4 1038.2,2097.8C1041.7,2105.7 1046.1,2113.4 1051.3,2120.8C1064.4,2139.3 1082,2154.7 1102.1,2165.2C1126,2177.7 1153.9,2184.1 1183.1,2184.1C1198.1,2184.1 1213.4,2182.4 1228.8,2179C1267.1,2170.6 1299.8,2153.1 1323.3,2128.5C1350.9,2099.6 1364.7,2060.8 1360.5,2024.4L1360.5,852.5L1360.7,852.5ZM1219.1,2134C1184.1,2141.7 1150.2,2138.2 1123.6,2124.3C1095.2,2109.5 1075.8,2081.6 1074,2053.4C1072.2,2025 1090.9,1996.2 1115.7,1989.1C1127.9,1985.6 1135,1972.8 1131.5,1960.6C1128,1948.4 1115.2,1941.3 1103,1944.8C1080.2,1951.3 1060.1,1966.7 1046.2,1988.1C1034.1,2006.8 1027.6,2028.7 1027.8,2050.3C1001.3,2067.6 973.9,2077.3 946.4,2079.3C919.3,2081.2 893,2075.3 870.2,2062C845.6,2047.7 825.8,2025.5 812.9,1997.6C802.2,1974.6 796.5,1948.1 795.9,1919.8C798.1,1920.3 800.3,1920.7 802.6,1921.2C818.9,1924.3 835.3,1925.8 851.5,1925.8C890.8,1925.8 929,1916.9 962.6,1899.5C973.9,1893.6 978.3,1879.7 972.5,1868.4C966.6,1857.1 952.7,1852.7 941.4,1858.5C903.1,1878.3 856.9,1884.5 811.2,1875.8C800.8,1873.8 790.6,1871.1 780.8,1867.8L780.7,1867.8C747.5,1856.4 718.2,1837.2 696.3,1812.2C666.9,1778.6 648.3,1737.2 644,1695.5C640.1,1658.4 647.3,1622.8 664.9,1591.4C668.2,1593.8 671.6,1596.1 675.1,1598.2C696.2,1611.1 721.9,1618 747.5,1618C753.4,1618 759.4,1617.6 765.2,1616.9C790.8,1613.6 813.5,1603.6 831.1,1588.1C857,1602.5 886.5,1610 916.1,1610C925.4,1610 934.8,1609.2 944,1607.7C956.6,1605.6 965.1,1593.8 963,1581.2C960.9,1568.6 949.1,1560.1 936.5,1562.2C904.5,1567.5 870.9,1560.1 844,1541.9C843.2,1541.1 842.3,1540.3 841.3,1539.5C840.1,1538.6 838.8,1537.8 837.5,1537.2C813,1518.3 795.8,1490.5 790,1460C787.6,1447.5 775.5,1439.3 763,1441.7C750.5,1444.1 742.3,1456.2 744.7,1468.7C751.3,1502.9 768.4,1534.6 792.9,1559.1C783.4,1565.3 772,1569.3 759.4,1571C738.4,1573.7 716.4,1569.2 699.2,1558.7C665,1537.8 641.4,1494.4 637.7,1445.4C634.2,1399.7 647.2,1352.1 672.9,1313.9C690.8,1329.3 712.2,1341.1 735.2,1348.2C751.1,1353.1 767.2,1355.5 783,1355.5C795.9,1355.5 808.6,1353.9 820.7,1350.6C826.4,1361.1 833.3,1371.1 841.2,1380.2C874.4,1418.1 924.4,1438.7 974.2,1438.7C1000.6,1438.7 1027,1432.9 1050.8,1420.9C1062.2,1415.1 1066.7,1401.3 1061,1389.9C1055.2,1378.5 1041.4,1374 1030,1379.7C1012.9,1388.3 993.8,1392.5 974.5,1392.5C937.5,1392.5 900.1,1377.4 876,1349.8C839.3,1307.9 835.3,1239.1 866.9,1193.1C874.1,1182.6 871.5,1168.2 861,1161C850.5,1153.8 836.1,1156.4 828.9,1166.9C801,1207.5 793.1,1259.6 804.3,1307C764,1315.6 715.3,1297.9 687.5,1262.6C671.2,1242 660.5,1215.7 656.3,1186.5C652.3,1158.6 654.3,1128.7 662.1,1100C671.5,1065.4 687.4,1037 708.4,1017.8C727.3,1000.5 751.3,990.5 773.9,990C780.7,1022.6 795.5,1054 817.5,1080C850.2,1118.8 895.9,1143.6 942.9,1148C947.9,1148.5 952.8,1148.7 957.7,1148.7C1004.4,1148.7 1049.2,1128.4 1077.3,1093.7C1085.3,1083.8 1083.8,1069.3 1073.9,1061.3C1064,1053.3 1049.5,1054.8 1041.5,1064.7C1020.3,1090.8 983.3,1105.5 947.1,1102.1C912.1,1098.8 877.7,1080 852.7,1050.3C818.4,1009.6 806.6,952.6 822.6,905C830.5,881.6 846,859.9 866.2,843.9C886.5,827.8 910.8,818.3 934.6,817C958.5,815.7 983.3,823.1 1004.3,837.7C1025.3,852.4 1040.2,872.7 1046.2,895.1C1049.5,907.4 1062.1,914.7 1074.4,911.4C1086.7,908.1 1094,895.5 1090.7,883.2C1081.9,850.3 1060.6,820.7 1030.6,799.9C1024.3,795.5 1017.7,791.6 1011,788.2C1011.3,719.6 1072.7,684.3 1109.9,669.2C1137.3,658.1 1169.6,656.3 1200.8,664.3C1231.9,672.2 1259.9,689.1 1279.8,711.9C1320.5,758.7 1328.3,832.1 1298.2,886.5C1268.2,940.8 1201.9,973.2 1140.5,963.6C1127.9,961.6 1116.1,970.2 1114.1,982.8C1112.1,995.4 1120.7,1007.2 1133.3,1009.2C1142.7,1010.7 1152.3,1011.4 1161.9,1011.4C1192.2,1011.4 1223.1,1004.2 1251.3,990.4C1275.6,978.5 1297.3,961.9 1314.7,942.3L1314.7,1758C1302.2,1781.9 1282,1802.9 1257.3,1817.4C1231.6,1832.5 1201.9,1839.9 1173.9,1838.2C1145.9,1836.6 1117.4,1825.7 1093.6,1807.8C1074.6,1793.4 1059.1,1774.9 1049,1754.5C1097.8,1736.8 1137.9,1696.2 1153.3,1646.3C1157.1,1634.1 1150.3,1621.2 1138.1,1617.4C1125.9,1613.6 1113,1620.4 1109.2,1632.6C1095.9,1675.3 1055.8,1709.9 1011.5,1716.6C967.3,1723.3 918.6,1702.3 893.3,1665.4C886.1,1654.9 871.7,1652.3 861.2,1659.5C850.7,1666.7 848.1,1681.1 855.3,1691.6C886.3,1736.7 940.2,1764 994.6,1764C997.2,1764 999.9,1763.9 1002.5,1763.8C1030.5,1831 1098.4,1879.9 1171.2,1884.2C1174.7,1884.4 1178.2,1884.5 1181.7,1884.5C1230.5,1884.5 1278.6,1864.8 1314.6,1832L1314.6,2045.1C1314.6,2045.8 1314.6,2046.4 1314.7,2047C1312.3,2064.5 1303.8,2082.1 1290.2,2096.3C1268.4,2119.4 1239.5,2129.5 1219.1,2134Z" style="fill:rgb(133,69,38);fill-rule:nonzero;"/>
                            </g>
                            <g transform="matrix(0.2298,-0.9732,0.9732,0.2298,161.397,1680.33)">
                                <circle cx="1142.3" cy="738.2" r="65.3" style="fill:rgb(255,164,120);"/>
                            </g>
                            <circle cx="878.3" cy="896.2" r="32.4" style="fill:rgb(255,164,120);"/>
                            <g transform="matrix(0.9239,-0.3827,0.3827,0.9239,-565.916,601.521)">
                                <circle cx="1229.1" cy="1723.3" r="57.1" style="fill:rgb(255,164,120);"/>
                            </g>
                            <circle cx="730.4" cy="1076.1" r="32.4" style="fill:rgb(255,164,120);"/>
                            <circle cx="698" cy="1680.4" r="32.4" style="fill:rgb(255,164,120);"/>
                            <g transform="matrix(0.1602,-0.9871,0.9871,0.1602,-467.253,1947.17)">
                                <circle cx="910.7" cy="1248.2" r="32.4" style="fill:rgb(255,164,120);"/>
                            </g>
                            <circle cx="1255" cy="759.1" r="20.9" style="fill:rgb(255,164,120);"/>
                            <g transform="matrix(0.2298,-0.9732,0.9732,0.2298,-276.574,1576.08)">
                                <circle cx="857.4" cy="962.8" r="20.9" style="fill:rgb(255,164,120);"/>
                            </g>
                            <g transform="matrix(0.7071,-0.7071,0.7071,0.7071,-594.111,824.35)">
                                <circle cx="698" cy="1129.3" r="20.9" style="fill:rgb(255,164,120);"/>
                            </g>
                            <g transform="matrix(0.2298,-0.9732,0.9732,0.2298,-1132.95,2235.69)">
                                <circle cx="846" cy="1833.6" r="20.9" style="fill:rgb(255,164,120);"/>
                            </g>
                            <g transform="matrix(0.7071,-0.7071,0.7071,0.7071,-1147.99,1193.65)">
                                <circle cx="866.9" cy="1982.6" r="20.9" style="fill:rgb(255,164,120);"/>
                            </g>
                            <circle cx="1139.6" cy="2024.3" r="20.9" style="fill:rgb(255,164,120);"/>
                        </g>
                        <g>
                            <path d="M1503.9,2096.7C1490.3,2082.4 1481.7,2064.9 1479.4,2047.4C1479.5,2046.8 1479.5,2046.1 1479.5,2045.5L1479.5,1832.4C1515.5,1865.2 1563.6,1884.9 1612.4,1884.9C1615.9,1884.9 1619.4,1884.8 1622.9,1884.6C1695.7,1880.3 1763.6,1831.4 1791.6,1764.2C1794.2,1764.3 1796.9,1764.4 1799.5,1764.4C1853.9,1764.4 1907.8,1737 1938.8,1692C1946,1681.5 1943.4,1667.1 1932.9,1659.9C1922.4,1652.7 1908,1655.3 1900.8,1665.8C1875.4,1702.7 1826.8,1723.7 1782.6,1717C1738.4,1710.3 1698.2,1675.7 1684.9,1633C1681.1,1620.8 1668.2,1614 1656,1617.8C1643.8,1621.6 1637,1634.5 1640.8,1646.7C1656.3,1696.6 1696.4,1737.2 1745.1,1754.9C1734.9,1775.3 1719.5,1793.8 1700.5,1808.2C1676.7,1826.2 1648.2,1837 1620.2,1838.6C1592.2,1840.2 1562.6,1832.9 1536.8,1817.8C1512.1,1803.4 1491.9,1782.4 1479.4,1758.4L1479.4,942.6C1496.8,962.3 1518.5,978.8 1542.8,990.7C1571,1004.5 1601.9,1011.7 1632.2,1011.7C1641.8,1011.7 1651.4,1011 1660.8,1009.5C1673.4,1007.5 1682,995.7 1680,983.1C1678,970.5 1666.2,961.9 1653.6,963.9C1592.3,973.5 1526,941.1 1495.9,886.8C1465.9,832.5 1473.6,759.1 1514.3,712.2C1534.1,689.4 1562.2,672.5 1593.3,664.6C1624.5,656.7 1656.8,658.4 1684.2,669.5C1721.4,684.5 1782.8,719.8 1783.1,788.5C1776.3,791.9 1769.8,795.9 1763.5,800.2C1733.5,821.1 1712.2,850.7 1703.4,883.5C1700.1,895.8 1707.4,908.4 1719.7,911.7C1732,915 1744.6,907.7 1747.9,895.4C1753.9,873 1768.8,852.7 1789.8,838C1810.8,823.4 1835.6,816 1859.5,817.3C1883.3,818.5 1907.5,828.1 1927.9,844.2C1948.1,860.2 1963.6,881.9 1971.5,905.3C1987.5,952.9 1975.7,1009.9 1941.4,1050.6C1916.4,1080.2 1882,1099.1 1847,1102.4C1810.8,1105.8 1773.8,1091.1 1752.6,1065C1744.6,1055.1 1730.1,1053.6 1720.2,1061.6C1710.3,1069.6 1708.8,1084.1 1716.8,1094C1744.9,1128.6 1789.7,1149 1836.4,1149C1841.3,1149 1846.3,1148.8 1851.2,1148.3C1898.2,1143.9 1943.9,1119.2 1976.6,1080.3C1998.6,1054.2 2013.4,1022.9 2020.2,990.3C2042.8,990.8 2066.9,1000.7 2085.7,1018.1C2106.6,1037.3 2122.6,1065.7 2132,1100.3C2139.8,1129 2141.8,1158.9 2137.8,1186.8C2133.6,1216 2122.8,1242.3 2106.6,1262.9C2078.8,1298.2 2030.1,1315.9 1989.8,1307.3C2001,1259.9 1993.1,1207.8 1965.2,1167.2C1958,1156.7 1943.6,1154 1933.1,1161.3C1922.6,1168.5 1919.9,1182.9 1927.2,1193.4C1958.8,1239.3 1954.7,1308.1 1918.1,1350.1C1894,1377.6 1856.5,1392.8 1819.6,1392.8C1800.3,1392.8 1781.1,1388.7 1764.1,1380C1752.7,1374.2 1738.9,1378.8 1733.1,1390.2C1727.3,1401.6 1731.9,1415.4 1743.3,1421.2C1767.1,1433.3 1793.5,1439 1819.9,1439C1869.8,1439 1919.7,1418.4 1952.9,1380.5C1960.9,1371.4 1967.7,1361.5 1973.4,1350.9C1985.5,1354.2 1998.2,1355.8 2011.1,1355.8C2026.9,1355.8 2043,1353.4 2058.9,1348.5C2081.9,1341.4 2103.3,1329.6 2121.2,1314.2C2146.9,1352.4 2159.9,1400 2156.4,1445.7C2152.6,1494.7 2129.1,1538.1 2094.9,1559C2077.7,1569.5 2055.7,1574 2034.7,1571.3C2022,1569.7 2010.7,1565.6 2001.2,1559.4C2025.7,1534.9 2042.8,1503.1 2049.4,1469C2051.8,1456.5 2043.6,1444.4 2031.1,1442C2018.6,1439.6 2006.5,1447.8 2004.1,1460.3C1998.2,1490.7 1981,1518.5 1956.6,1537.5C1955.3,1538.1 1954,1538.9 1952.8,1539.8C1951.8,1540.5 1951,1541.3 1950.1,1542.2C1923.2,1560.4 1889.6,1567.7 1857.6,1562.5C1845,1560.4 1833.2,1568.9 1831.1,1581.5C1829,1594.1 1837.5,1605.9 1850.1,1608C1859.3,1609.5 1868.7,1610.3 1878,1610.3C1907.6,1610.3 1937.1,1602.7 1963,1588.4C1980.5,1603.9 2003.3,1614 2028.9,1617.2C2034.8,1618 2040.7,1618.3 2046.6,1618.3C2072.2,1618.3 2097.8,1611.4 2119,1598.5C2122.5,1596.4 2125.9,1594.1 2129.2,1591.7C2146.7,1623 2154,1658.7 2150.1,1695.8C2145.7,1737.5 2127.2,1779 2097.8,1812.5C2075.9,1837.5 2046.6,1856.7 2013.4,1868.1L2013.3,1868.1C2003.5,1871.5 1993.3,1874.2 1982.9,1876.1C1937.3,1884.7 1891,1878.6 1852.7,1858.8C1841.4,1852.9 1827.5,1857.4 1821.6,1868.7C1815.7,1880 1820.2,1893.9 1831.5,1899.8C1865.1,1917.2 1903.3,1926.1 1942.6,1926.1C1958.8,1926.1 1975.2,1924.6 1991.5,1921.5C1993.7,1921.1 1996,1920.6 1998.2,1920.1C1997.6,1948.4 1991.9,1975 1981.2,1997.9C1968.3,2025.7 1948.5,2048 1923.9,2062.3C1901.1,2075.5 1874.8,2081.5 1847.7,2079.6C1820.2,2077.6 1792.8,2067.8 1766.3,2050.6C1766.4,2029 1760,2007.1 1747.9,1988.4C1734,1967 1713.9,1951.6 1691.1,1945.1C1678.9,1941.6 1666.1,1948.7 1662.6,1960.9C1659.1,1973.1 1666.2,1985.9 1678.4,1989.4C1703.2,1996.5 1721.9,2025.4 1720.1,2053.7C1718.3,2081.9 1698.9,2109.7 1670.5,2124.6C1643.9,2138.5 1610,2142 1575,2134.3C1554.4,2129.5 1525.5,2119.4 1503.9,2096.7Z" style="fill:rgb(73,203,255);fill-rule:nonzero;"/>
                            <g>
                                <path d="M1613.4,1340.6C1596.3,1394.2 1608.9,1456.4 1645.5,1499.2C1653.8,1508.9 1652.7,1523.4 1643,1531.7C1638.7,1535.4 1633.3,1537.2 1628,1537.2C1621.5,1537.2 1615,1534.5 1610.5,1529.1C1563.8,1474.5 1547.7,1395 1569.5,1326.5C1591.4,1258 1650.5,1202.5 1720.3,1185.1C1732.7,1182 1745.2,1189.5 1748.3,1201.9C1751.4,1214.3 1743.9,1226.8 1731.5,1229.9C1676.8,1243.6 1630.5,1287 1613.4,1340.6Z" style="fill:rgb(38,106,133);fill-rule:nonzero;"/>
                                <path d="M1433.3,2024.4C1429.1,2060.8 1442.9,2099.6 1470.5,2128.5C1494,2153.1 1526.7,2170.6 1565,2179C1580.4,2182.4 1595.8,2184.1 1610.7,2184.1C1640,2184.1 1667.8,2177.7 1691.7,2165.2C1711.9,2154.6 1729.5,2139.3 1742.5,2120.8C1747.7,2113.5 1752.1,2105.8 1755.6,2097.8C1789,2116.4 1824,2125.8 1858,2125.8C1889.2,2125.8 1919.5,2117.9 1946.9,2101.9C1979.7,2082.8 2006,2053.5 2022.9,2017C2038.2,1984 2045.4,1945.7 2044,1905.3C2078.3,1890.9 2108.6,1869.5 2132.3,1842.5C2167.9,1801.8 2190.5,1751.3 2195.8,1700.2C2201.1,1649.1 2189.7,1600.1 2162.8,1557.9C2185.1,1528.5 2199.1,1490.6 2202.3,1449C2207,1388.1 2188.8,1326.9 2152.3,1278.3C2186,1226.8 2195.2,1157.1 2176.6,1088.3C2165,1045.3 2144.4,1009.2 2117,984.1C2090.5,959.7 2057.3,945.7 2024.5,944.3C2024.1,926 2021,907.8 2015.2,890.6C1992.7,823.9 1929.7,774.8 1862,771.2C1850.9,770.6 1839.6,771.3 1828.5,773.3C1825.6,743 1813.9,715.4 1793.7,690.8C1771.7,664.1 1740.7,642.6 1701.5,626.7C1626.9,596.5 1533.5,619.7 1479.5,681.9C1453.7,711.6 1437.1,750.6 1432.7,791.8C1430.8,810 1431.3,828.2 1434.1,845.9C1433.5,848 1433.1,850.2 1433.1,852.5L1433.1,2024.4L1433.3,2024.4ZM1503.9,2096.7C1490.3,2082.4 1481.7,2064.9 1479.4,2047.4C1479.5,2046.8 1479.5,2046.1 1479.5,2045.5L1479.5,1832.4C1515.5,1865.2 1563.6,1884.9 1612.4,1884.9C1615.9,1884.9 1619.4,1884.8 1622.9,1884.6C1695.7,1880.3 1763.6,1831.4 1791.6,1764.2C1794.2,1764.3 1796.9,1764.4 1799.5,1764.4C1853.9,1764.4 1907.8,1737 1938.8,1692C1946,1681.5 1943.4,1667.1 1932.9,1659.9C1922.4,1652.7 1908,1655.3 1900.8,1665.8C1875.4,1702.7 1826.8,1723.7 1782.6,1717C1738.4,1710.3 1698.2,1675.7 1684.9,1633C1681.1,1620.8 1668.2,1614 1656,1617.8C1643.8,1621.6 1637,1634.5 1640.8,1646.7C1656.3,1696.6 1696.4,1737.2 1745.1,1754.9C1734.9,1775.3 1719.5,1793.8 1700.5,1808.2C1676.7,1826.2 1648.2,1837 1620.2,1838.6C1592.2,1840.2 1562.6,1832.9 1536.8,1817.8C1512.1,1803.4 1491.9,1782.4 1479.4,1758.4L1479.4,942.6C1496.8,962.3 1518.5,978.8 1542.8,990.7C1571,1004.5 1601.9,1011.7 1632.2,1011.7C1641.8,1011.7 1651.4,1011 1660.8,1009.5C1673.4,1007.5 1682,995.7 1680,983.1C1678,970.5 1666.2,961.9 1653.6,963.9C1592.3,973.5 1526,941.1 1495.9,886.8C1465.9,832.5 1473.6,759.1 1514.3,712.2C1534.1,689.4 1562.2,672.5 1593.3,664.6C1624.5,656.7 1656.8,658.4 1684.2,669.5C1721.4,684.5 1782.8,719.8 1783.1,788.5C1776.3,791.9 1769.8,795.9 1763.5,800.2C1733.5,821.1 1712.2,850.7 1703.4,883.5C1700.1,895.8 1707.4,908.4 1719.7,911.7C1732,915 1744.6,907.7 1747.9,895.4C1753.9,873 1768.8,852.7 1789.8,838C1810.8,823.4 1835.6,816 1859.5,817.3C1883.3,818.5 1907.5,828.1 1927.9,844.2C1948.1,860.2 1963.6,881.9 1971.5,905.3C1987.5,952.9 1975.7,1009.9 1941.4,1050.6C1916.4,1080.2 1882,1099.1 1847,1102.4C1810.8,1105.8 1773.8,1091.1 1752.6,1065C1744.6,1055.1 1730.1,1053.6 1720.2,1061.6C1710.3,1069.6 1708.8,1084.1 1716.8,1094C1744.9,1128.6 1789.7,1149 1836.4,1149C1841.3,1149 1846.3,1148.8 1851.2,1148.3C1898.2,1143.9 1943.9,1119.2 1976.6,1080.3C1998.6,1054.2 2013.4,1022.9 2020.2,990.3C2042.8,990.8 2066.9,1000.7 2085.7,1018.1C2106.6,1037.3 2122.6,1065.7 2132,1100.3C2139.8,1129 2141.8,1158.9 2137.8,1186.8C2133.6,1216 2122.8,1242.3 2106.6,1262.9C2078.8,1298.2 2030.1,1315.9 1989.8,1307.3C2001,1259.9 1993.1,1207.8 1965.2,1167.2C1958,1156.7 1943.6,1154 1933.1,1161.3C1922.6,1168.5 1919.9,1182.9 1927.2,1193.4C1958.8,1239.3 1954.7,1308.1 1918.1,1350.1C1894,1377.6 1856.5,1392.8 1819.6,1392.8C1800.3,1392.8 1781.1,1388.7 1764.1,1380C1752.7,1374.2 1738.9,1378.8 1733.1,1390.2C1727.3,1401.6 1731.9,1415.4 1743.3,1421.2C1767.1,1433.3 1793.5,1439 1819.9,1439C1869.8,1439 1919.7,1418.4 1952.9,1380.5C1960.9,1371.4 1967.7,1361.5 1973.4,1350.9C1985.5,1354.2 1998.2,1355.8 2011.1,1355.8C2026.9,1355.8 2043,1353.4 2058.9,1348.5C2081.9,1341.4 2103.3,1329.6 2121.2,1314.2C2146.9,1352.4 2159.9,1400 2156.4,1445.7C2152.6,1494.7 2129.1,1538.1 2094.9,1559C2077.7,1569.5 2055.7,1574 2034.7,1571.3C2022,1569.7 2010.7,1565.6 2001.2,1559.4C2025.7,1534.9 2042.8,1503.1 2049.4,1469C2051.8,1456.5 2043.6,1444.4 2031.1,1442C2018.6,1439.6 2006.5,1447.8 2004.1,1460.3C1998.2,1490.7 1981,1518.5 1956.6,1537.5C1955.3,1538.1 1954,1538.9 1952.8,1539.8C1951.8,1540.5 1951,1541.3 1950.1,1542.2C1923.2,1560.4 1889.6,1567.7 1857.6,1562.5C1845,1560.4 1833.2,1568.9 1831.1,1581.5C1829,1594.1 1837.5,1605.9 1850.1,1608C1859.3,1609.5 1868.7,1610.3 1878,1610.3C1907.6,1610.3 1937.1,1602.7 1963,1588.4C1980.5,1603.9 2003.3,1614 2028.9,1617.2C2034.8,1618 2040.7,1618.3 2046.6,1618.3C2072.2,1618.3 2097.8,1611.4 2119,1598.5C2122.5,1596.4 2125.9,1594.1 2129.2,1591.7C2146.7,1623 2154,1658.7 2150.1,1695.8C2145.7,1737.5 2127.2,1779 2097.8,1812.5C2075.9,1837.5 2046.6,1856.7 2013.4,1868.1L2013.3,1868.1C2003.5,1871.5 1993.3,1874.2 1982.9,1876.1C1937.3,1884.7 1891,1878.6 1852.7,1858.8C1841.4,1852.9 1827.5,1857.4 1821.6,1868.7C1815.7,1880 1820.2,1893.9 1831.5,1899.8C1865.1,1917.2 1903.3,1926.1 1942.6,1926.1C1958.8,1926.1 1975.2,1924.6 1991.5,1921.5C1993.7,1921.1 1996,1920.6 1998.2,1920.1C1997.6,1948.4 1991.9,1975 1981.2,1997.9C1968.3,2025.7 1948.5,2048 1923.9,2062.3C1901.1,2075.5 1874.8,2081.5 1847.7,2079.6C1820.2,2077.6 1792.8,2067.8 1766.3,2050.6C1766.4,2029 1760,2007.1 1747.9,1988.4C1734,1967 1713.9,1951.6 1691.1,1945.1C1678.9,1941.6 1666.1,1948.7 1662.6,1960.9C1659.1,1973.1 1666.2,1985.9 1678.4,1989.4C1703.2,1996.5 1721.9,2025.4 1720.1,2053.7C1718.3,2081.9 1698.9,2109.7 1670.5,2124.6C1643.9,2138.5 1610,2142 1575,2134.3C1554.4,2129.5 1525.5,2119.4 1503.9,2096.7Z" style="fill:rgb(38,106,133);fill-rule:nonzero;"/>
                            </g>
                            <g transform="matrix(0.9732,-0.2298,0.2298,0.9732,-125.419,399.221)">
                                <circle cx="1651.7" cy="738.2" r="65.3" style="fill:rgb(140,222,255);"/>
                            </g>
                            <circle cx="1915.6" cy="896.2" r="32.4" style="fill:rgb(140,222,255);"/>
                            <g transform="matrix(0.3827,-0.9239,0.9239,0.3827,-626.082,2509.57)">
                                <circle cx="1564.9" cy="1723.3" r="57.1" style="fill:rgb(140,222,255);"/>
                            </g>
                            <circle cx="2063.6" cy="1076.1" r="32.4" style="fill:rgb(140,222,255);"/>
                            <circle cx="2095.9" cy="1680.4" r="32.4" style="fill:rgb(140,222,255);"/>
                            <g transform="matrix(0.9871,-0.1602,0.1602,0.9871,-175.619,317.783)">
                                <circle cx="1883.3" cy="1248.2" r="32.4" style="fill:rgb(140,222,255);"/>
                            </g>
                            <circle cx="1538.9" cy="759.1" r="20.9" style="fill:rgb(140,222,255);"/>
                            <g transform="matrix(0.9732,-0.2298,0.2298,0.9732,-169.397,470.674)">
                                <circle cx="1936.5" cy="962.8" r="20.9" style="fill:rgb(140,222,255);"/>
                            </g>
                            <g transform="matrix(0.7071,-0.7071,0.7071,0.7071,-184.674,1812.82)">
                                <circle cx="2095.9" cy="1129.3" r="20.9" style="fill:rgb(140,222,255);"/>
                            </g>
                            <g transform="matrix(0.9732,-0.2298,0.2298,0.9732,-369.168,496.602)">
                                <circle cx="1948" cy="1833.6" r="20.9" style="fill:rgb(140,222,255);"/>
                            </g>
                            <g transform="matrix(0.7071,-0.7071,0.7071,0.7071,-837.46,1943.34)">
                                <circle cx="1927.1" cy="1982.6" r="20.9" style="fill:rgb(140,222,255);"/>
                            </g>
                            <circle cx="1654.3" cy="2024.3" r="20.9" style="fill:rgb(140,222,255);"/>
                        </g>
                    </g>
                    <path d="M1929.7,472.1C1924.7,421.1 1880.8,378.6 1830.7,368.3C1780.6,357.9 1727.1,376.6 1688.6,410.3C1650.1,444.1 1625.5,491.5 1611.9,540.9C1631.5,516.9 1668.7,505 1699.5,508.4C1730.3,511.9 1759.1,524.4 1788.6,533.9C1818.1,543.4 1850.2,549.8 1879.8,540.8C1909.4,531.8 1932.7,502.9 1929.7,472.1Z" style="fill:rgb(49,139,163);fill-rule:nonzero;"/>
                    <path d="M2023.1,601.8C2024.5,635.5 2003,668.2 1972.8,683.1C1942.6,698 1905.3,695.9 1875.4,680.3C1845.5,664.8 1822.9,636.9 1810.6,605.5C1825.9,618.7 1852.8,617.5 1871.9,610.9C1891,604.3 1907.5,592.2 1924.9,581.9C1942.3,571.7 1962,563.2 1982,565.3C2002.2,567.6 2022.3,581.7 2023.1,601.8Z" style="fill:rgb(20,171,189);fill-rule:nonzero;"/>
                    <path d="M1972.2,726.7C2008.3,716.5 2046.6,711.3 2083.3,719C2120,726.7 2154.9,748.8 2171.6,782.4C2188.3,815.9 2183.2,861 2154.8,885.5C2129.7,907.2 2084.9,888.8 2067,860.8C2048.8,832.3 2055.5,793.8 2040.1,763.6C2028.2,740.2 1998.4,727.1 1972.2,726.7Z" style="fill:rgb(255,56,0);fill-rule:nonzero;"/>
                    <path d="M2017.7,671.8C2036,679.8 2055.8,685.4 2075.8,684C2095.7,682.6 2115.8,673.5 2127,657C2138.3,640.5 2138.8,616.4 2125.7,601.4C2114,588.1 2089,594.6 2077.6,608C2065.9,621.7 2066.6,642.5 2056.3,657.3C2048.3,668.7 2031.6,673.5 2017.7,671.8Z" style="fill:rgb(255,96,0);fill-rule:nonzero;"/>
                    <path d="M1959,507.3C1980.9,516.9 2004.7,523.6 2028.6,521.9C2052.5,520.2 2076.5,509.3 2090,489.5C2103.5,469.7 2104.2,440.8 2088.4,422.8C2074.4,406.8 2044.4,414.6 2030.7,430.7C2016.7,447.2 2017.5,472.1 2005.2,489.8C1995.6,503.7 1975.6,509.3 1959,507.3Z" style="fill:rgb(255,170,0);fill-rule:nonzero;"/>
                    <path d="M2427.4,928.9C2468.2,898 2481.4,838.3 2463.9,790.2C2446.4,742.1 2402.6,706.3 2353.6,691.2C2304.7,676.1 2251.4,680.1 2202.2,694.3C2232.9,698.4 2262.6,723.8 2275.7,751.9C2288.9,779.9 2293.3,811.1 2300.7,841.2C2308.1,871.3 2319.4,901.9 2342.6,922.5C2365.9,942.9 2402.8,947.6 2427.4,928.9Z" style="fill:rgb(157,37,232);fill-rule:nonzero;"/>
                    <path d="M2340,1642.7C2307.1,1649.9 2271.1,1634.5 2251.1,1607.4C2231.1,1580.2 2226.7,1543.1 2236.8,1511C2246.9,1478.8 2270.4,1451.7 2299.2,1434.1C2288.9,1451.5 2294.8,1477.8 2304.6,1495.4C2314.4,1513.1 2329.3,1527.2 2342.4,1542.6C2355.5,1558 2367.3,1575.8 2368.7,1596C2370.1,1616.1 2359.7,1638.4 2340,1642.7Z" style="fill:rgb(255,96,0);fill-rule:nonzero;"/>
                    <path d="M2237.3,1764C2253.6,1797.7 2265.4,1834.6 2264.3,1872.1C2263.2,1909.6 2247.4,1947.8 2217.3,1970.1C2187.2,1992.4 2142,1995.2 2112.8,1971.6C2087,1950.7 2097.4,1903.3 2121.8,1880.8C2146.7,1857.9 2185.8,1857.7 2212.8,1837.4C2233.8,1821.5 2241.5,1789.8 2237.3,1764Z" style="fill:rgb(255,56,0);fill-rule:nonzero;"/>
                    <path d="M2270.2,1649.6C2265.5,1669 2263.5,1689.5 2268.4,1708.9C2273.3,1728.3 2285.7,1746.4 2303.9,1754.6C2322.1,1762.8 2346,1759.2 2358.5,1743.6C2369.6,1729.8 2358.8,1706.3 2343.6,1697.4C2328,1688.3 2307.7,1692.6 2291.3,1685C2278.6,1679.1 2271,1663.5 2270.2,1649.6Z" style="fill:rgb(255,56,0);fill-rule:nonzero;"/>
                    <path d="M2421.9,1563C2416.3,1586.3 2413.9,1610.9 2419.7,1634.1C2425.5,1657.3 2440.5,1679.1 2462.3,1688.9C2484.1,1698.7 2512.7,1694.4 2527.7,1675.7C2541,1659.2 2528.1,1631 2509.8,1620.2C2491.2,1609.3 2466.7,1614.5 2447.1,1605.4C2431.9,1598.5 2422.8,1579.7 2421.9,1563Z" style="fill:rgb(255,170,0);fill-rule:nonzero;"/>
                    <path d="M2340.2,1959.5C2367.5,1953.6 2387.7,1927.2 2390.2,1899.5C2392.7,1871.8 2379.3,1843.9 2358.6,1825.2C2337.9,1806.5 2310.7,1796.1 2283.2,1791.8C2297.4,1800.9 2306.2,1820.3 2306.2,1837.2C2306.2,1854.1 2301.2,1870.5 2297.9,1887C2294.6,1903.5 2293.1,1921.3 2299.8,1936.8C2306.6,1952.2 2323.7,1963.1 2340.2,1959.5Z" style="fill:rgb(157,37,232);fill-rule:nonzero;"/>
                    <path d="M2365.9,1076.5C2337.9,1095.3 2298.8,1094.2 2270.3,1076.3C2241.7,1058.4 2224,1025.5 2221.6,991.9C2219.1,958.3 2231,924.4 2251.4,897.5C2248.2,917.4 2263.3,939.7 2278.9,952.6C2294.5,965.5 2313.5,973.1 2331.3,982.6C2349.1,992.1 2366.7,1004.4 2375.4,1022.6C2384.1,1040.7 2382.6,1065.2 2365.9,1076.5Z" style="fill:rgb(255,170,0);fill-rule:nonzero;"/>
                    <path d="M2527.8,1496.6C2516.3,1528.3 2484.1,1550.4 2450.4,1552.8C2416.7,1555.2 2383.1,1539 2361.3,1513.3C2339.5,1487.6 2329.1,1453.2 2329.7,1419.5C2338.9,1437.5 2364.3,1446.6 2384.4,1447.8C2404.5,1449 2424.5,1444 2444.4,1441.1C2464.4,1438.2 2485.8,1437.8 2503.6,1447.4C2521.4,1457 2534.7,1477.7 2527.8,1496.6Z" style="fill:rgb(255,170,0);fill-rule:nonzero;"/>
                    <path d="M1999.5,2246.7C1974.2,2224.5 1965.3,2186.4 1975.3,2154.2C1985.3,2122 2012.6,2096.5 2044.5,2085.6C2076.4,2074.6 2112.2,2077.5 2143.4,2090.3C2123.3,2092.3 2105.6,2112.6 2097.2,2131C2088.7,2149.3 2086.2,2169.7 2081.6,2189.4C2077,2209.1 2069.6,2229.2 2054.2,2242.2C2038.7,2255.1 2014.7,2260 1999.5,2246.7Z" style="fill:rgb(255,96,0);fill-rule:nonzero;"/>
                    <path d="M1841,2235.8C1823.5,2268.9 1800.8,2300.3 1769.9,2321.5C1739,2342.7 1698.9,2352.8 1663.1,2341.7C1627.3,2330.7 1598.2,2295.9 1600,2258.4C1601.6,2225.2 1645.9,2205.5 1678.5,2211.9C1711.7,2218.4 1735,2249.8 1767.4,2259.5C1792.5,2267.1 1822.6,2254.5 1841,2235.8Z" style="fill:rgb(255,56,0);fill-rule:nonzero;"/>
                    <path d="M1952.6,2194.5C1934.2,2202.2 1916.5,2212.8 1903.7,2228.1C1890.9,2243.4 1883.7,2264.3 1887.9,2283.8C1892.1,2303.3 1909.1,2320.4 1929.1,2321.2C1946.8,2321.9 1959.4,2299.4 1957.5,2281.8C1955.6,2263.9 1940.1,2250 1936.5,2232.4C1933.7,2218.8 1941.8,2203.4 1952.6,2194.5Z" style="fill:rgb(255,56,0);fill-rule:nonzero;"/>
                    <path d="M2112.2,2265.5C2090.1,2274.8 2068.9,2287.4 2053.6,2305.8C2038.3,2324.2 2029.7,2349.2 2034.6,2372.6C2039.6,2396 2060.1,2416.5 2084,2417.5C2105.2,2418.4 2120.3,2391.3 2118.1,2370.2C2115.9,2348.7 2097.2,2332.1 2092.9,2310.9C2089.6,2294.5 2099.3,2276.1 2112.2,2265.5Z" style="fill:rgb(255,170,0);fill-rule:nonzero;"/>
                    <path d="M1744.4,2434.6C1765.3,2453.1 1798.5,2453.8 1822.4,2439.3C1846.2,2424.9 1860.7,2397.6 1863.5,2369.9C1866.3,2342.2 1858.6,2314.1 1845.7,2289.4C1846.8,2306.2 1836.4,2324.8 1822.8,2334.8C1809.2,2344.8 1793.1,2350.5 1777.8,2357.7C1762.5,2364.9 1747.4,2374.2 1738.9,2388.8C1730.4,2403.2 1731.8,2423.4 1744.4,2434.6Z" style="fill:rgb(157,37,232);fill-rule:nonzero;"/>
                    <path d="M2276.4,2243.1C2244.1,2252.6 2207.1,2239.8 2185.3,2214.1C2163.5,2188.4 2156.5,2151.7 2164.3,2118.9C2172.1,2086.1 2193.6,2057.4 2221.1,2037.9C2212,2055.9 2219.8,2081.8 2230.7,2098.7C2241.7,2115.6 2257.5,2128.7 2271.7,2143.1C2285.8,2157.5 2298.9,2174.5 2301.7,2194.5C2304.5,2214.4 2295.7,2237.4 2276.4,2243.1Z" style="fill:rgb(255,170,0);fill-rule:nonzero;"/>
                    <path d="M2216.9,1156.5C2253.1,1166.2 2288.7,1181.3 2316.3,1206.6C2343.9,1232 2362.6,1268.8 2359.9,1306.2C2357.2,1343.6 2329.7,1379.7 2292.8,1386.3C2260.1,1392.2 2231,1353.4 2229.9,1320.2C2228.8,1286.4 2254.2,1256.7 2256.4,1222.9C2258.2,1196.8 2239.2,1170.3 2216.9,1156.5Z" style="fill:rgb(20,171,189);fill-rule:nonzero;"/>
                    <path d="M2284.1,1132.6C2295.7,1148.8 2310,1163.7 2327.8,1172.7C2345.6,1181.7 2367.5,1184.1 2385.6,1175.7C2403.7,1167.3 2416.5,1146.8 2412.9,1127.2C2409.7,1109.8 2384.9,1102.6 2368.1,1108.3C2351,1114.1 2341,1132.4 2324.6,1139.8C2312,1145.5 2295.2,1141.1 2284.1,1132.6Z" style="fill:rgb(255,56,0);fill-rule:nonzero;"/>
                    <path d="M2412.8,972.3C2416.1,996 2422.9,1019.8 2436.9,1039.3C2450.9,1058.8 2472.7,1073.5 2496.6,1074.7C2520.5,1075.9 2545.5,1061.3 2552.6,1038.4C2558.9,1018.1 2536.5,996.6 2515.6,993.4C2494.2,990.1 2473.4,1003.9 2451.9,1002.6C2435.1,1001.6 2419.8,987.5 2412.8,972.3Z" style="fill:rgb(255,96,0);fill-rule:nonzero;"/>
                </g>
            </g>
        </g>
    </g>
</svg>
